<svg width="24" height="24" viewBox="0 0 24 24" fill="none" xmlns="http://www.w3.org/2000/svg">
<path id="Pfad 205" d="M5.6632 23.9998H0.765234V8.22695H5.6632V23.9998ZM3.21158 6.07538C1.64537 6.07538 0.375 4.77812 0.375 3.21191C0.375 1.02831 2.73882 -0.336446 4.62987 0.755356C5.50751 1.26206 6.04816 2.19849 6.04816 3.21191C6.04816 4.77812 4.77727 6.07538 3.21158 6.07538ZM23.9947 23.9998H19.1073V16.3217C19.1073 14.4918 19.0704 12.1451 16.5608 12.1451C14.0142 12.1451 13.624 14.1332 13.624 16.1898V23.9998H8.73129V8.22695H13.4289V10.3785H13.4974C14.1513 9.13925 15.7487 7.83144 18.1317 7.83144C23.0887 7.83144 24 11.0957 24 15.3355V23.9998H23.9947Z" fill="#51C0F4"/>
</svg>
