<svg width="27" height="18" viewBox="0 0 27 18" fill="none" xmlns="http://www.w3.org/2000/svg">
<path id="Pfad 200" d="M17.666 16.8959C17.4182 16.6955 17.2969 16.3738 17.2969 16.0469C17.2969 15.7199 17.4205 15.3993 17.6677 15.152L22.6811 10.1406H1.26562C0.566895 10.1406 0 9.57108 0 8.82752C0 8.17362 0.566895 7.60936 1.26562 7.60936H22.6811L17.6697 2.59801C17.1753 2.10363 17.1753 1.30285 17.6697 0.808204C18.1641 0.313556 18.9649 0.313819 19.4595 0.808204L26.6314 7.98008C27.1258 8.47446 27.1258 9.27524 26.6314 9.76989L19.4595 16.9418C18.9633 17.4338 18.1617 17.4338 17.666 16.8959Z" fill="#51C0F4"/>
</svg>
