<svg width="27" height="18" viewBox="0 0 27 18" fill="none" xmlns="http://www.w3.org/2000/svg">
<path id="Pfad 204" d="M17.666 16.8961C17.4182 16.6957 17.2969 16.374 17.2969 16.047C17.2969 15.7201 17.4205 15.3995 17.6677 15.1521L22.6811 10.1408H1.26562C0.566895 10.1408 0 9.57126 0 8.82771C0 8.1738 0.566895 7.60954 1.26562 7.60954H22.6811L17.6697 2.59819C17.1753 2.10381 17.1753 1.30304 17.6697 0.808387C18.1641 0.313739 18.9649 0.314003 19.4595 0.808387L26.6314 7.98026C27.1258 8.47465 27.1258 9.27542 26.6314 9.77007L19.4595 16.9419C18.9633 17.434 18.1617 17.434 17.666 16.8961Z" fill="#0D255C"/>
</svg>
