<svg width="27" height="18" viewBox="0 0 27 18" fill="none" xmlns="http://www.w3.org/2000/svg">
<path id="Pfad 202" d="M17.666 16.8958C17.4182 16.6954 17.2969 16.3738 17.2969 16.0468C17.2969 15.7198 17.4205 15.3992 17.6677 15.1519L22.6811 10.1405H1.26562C0.566895 10.1405 0 9.57102 0 8.82746C0 8.17355 0.566895 7.6093 1.26562 7.6093H22.6811L17.6697 2.59795C17.1753 2.10356 17.1753 1.30279 17.6697 0.808143C18.1641 0.313495 18.9649 0.313758 19.4595 0.808143L26.6314 7.98002C27.1258 8.4744 27.1258 9.27518 26.6314 9.76982L19.4595 16.9417C18.9633 17.4337 18.1617 17.4337 17.666 16.8958Z" fill="#012E5C"/>
</svg>
